{"glyphs":{"0":{"ha":653,"x_min":0,"x_max":653,"o":"m 327 714 l 327 714 q 415 714 478 669 q 540 624 574 543 q 607 461 607 350 l 607 350 q 607 239 574 158 q 540 76 478 31 q 415 -14 327 -14 l 327 -14 q 239 -14 176 31 q 113 76 80 158 q 46 239 46 350 l 46 350 q 46 461 80 543 q 113 624 176 669 q 239 714 327 714 z m 327 672 l 327 672 q 265 672 233 591 q 201 509 201 350 l 201 350 q 201 191 233 110 q 265 28 327 28 l 327 28 q 388 28 420 110 q 452 191 452 350 l 452 350 q 452 509 420 591 q 388 672 327 672 z"},"1":{"ha":393,"x_min":0,"x_max":393,"o":"m 49 0 l 351 0 l 351 10 l 330 10 q 308 10 292 26 q 275 41 275 63 l 275 63 l 275 714 l 265 714 q 243 698 213 687 q 183 675 152 668 q 120 660 91 656 q 62 652 42 650 l 42 650 l 42 640 l 68 640 q 95 640 111 626 q 126 612 126 579 l 126 579 l 126 64 q 126 42 110 26 q 94 10 71 10 l 71 10 l 50 10 l 49 0 z"},"2":{"ha":617,"x_min":0,"x_max":617,"o":"m 105 487 l 95 487 l 47 641 q 73 664 111 680 q 148 696 192 705 q 235 714 277 714 l 277 714 q 352 714 411 690 q 470 665 503 621 q 536 576 536 512 l 536 512 q 536 463 515 417 q 494 370 460 329 q 425 287 385 250 q 345 213 307 183 q 268 153 238 129 l 238 129 l 443 129 q 473 129 496 139 q 518 149 537 171 q 555 192 572 226 l 572 226 l 582 226 l 523 0 l 45 0 l 45 10 q 85 55 130 106 q 175 156 219 209 q 262 262 298 316 q 334 370 355 423 q 376 475 376 523 l 376 523 q 376 594 340 635 q 304 676 242 672 l 242 672 q 176 668 141 622 q 105 575 105 487 l 105 487 z"},"3":{"ha":563,"x_min":0,"x_max":563,"o":"m 255 712 l 255 712 q 327 713 379 693 q 430 673 458 637 q 486 600 486 549 l 486 549 q 486 509 470 478 q 454 447 428 427 q 401 406 370 399 q 339 391 311 399 l 311 399 q 342 399 377 389 q 411 378 442 356 q 473 333 492 296 q 511 259 511 206 l 511 206 q 511 145 484 96 q 457 47 410 13 q 363 -21 303 -38 q 243 -56 177 -55 q 111 -54 47 -32 l 47 -32 l 49 -22 q 110 -23 165 -6 q 219 10 261 42 q 303 73 327 118 q 351 163 351 217 l 351 217 q 351 277 324 314 q 296 350 252 367 q 208 384 158 384 l 158 384 l 160 394 q 206 393 247 415 q 287 436 312 475 q 336 514 331 565 l 331 565 q 329 599 313 623 q 297 647 271 660 q 244 672 209 670 l 209 670 q 148 667 120 624 q 91 580 93 499 l 93 499 l 83 499 l 42 641 q 75 671 129 691 q 182 711 255 712 z"},"4":{"ha":619,"x_min":0,"x_max":619,"o":"m 324 1 l 324 544 l 464 714 l 474 714 l 474 1 l 324 1 z m 7 223 l 464 714 l 473 655 l 139 298 l 517 298 q 545 298 557 307 q 569 315 578 330 l 578 330 l 588 330 l 561 213 l 7 213 l 7 223 z m 324 64 l 474 64 q 474 42 491 26 q 507 10 529 10 l 529 10 l 540 10 l 540 0 l 257 0 l 258 10 l 268 10 q 291 10 308 26 q 324 41 324 64 l 324 64 z"},"5":{"ha":554,"x_min":0,"x_max":554,"o":"m 482 735 l 443 568 l 164 547 l 135 435 q 218 455 286 448 q 353 440 401 410 q 449 380 474 331 q 498 282 495 218 l 495 218 q 492 144 457 91 q 421 38 367 5 q 312 -28 250 -42 q 187 -57 129 -53 q 70 -50 26 -31 l 26 -31 l 28 -21 q 53 -22 91 -14 q 128 -7 169 10 q 209 27 245 54 q 281 80 305 118 q 329 155 332 203 l 332 203 q 337 265 301 301 q 265 337 203 343 q 140 349 62 319 l 62 319 l 53 324 l 134 664 l 393 685 q 425 685 443 699 q 461 713 472 735 l 472 735 l 482 735 z"},"6":{"ha":630,"x_min":0,"x_max":630,"o":"m 497 734 l 497 734 l 501 727 q 408 698 352 656 q 295 613 266 558 q 236 503 226 435 q 216 366 216 285 l 216 285 q 216 206 226 150 q 235 93 258 63 q 281 33 323 33 l 323 33 q 364 33 388 59 q 411 84 421 125 q 430 166 430 212 l 430 212 q 430 266 420 300 q 410 334 392 352 q 373 369 347 372 l 347 372 q 321 378 298 369 q 274 360 258 345 l 258 345 l 251 354 q 269 385 301 405 q 332 424 370 431 q 408 437 445 428 q 482 419 514 395 q 545 370 565 328 q 584 286 584 224 l 584 224 q 584 160 556 106 q 527 52 470 20 q 412 -13 325 -15 l 325 -15 q 239 -16 177 19 q 115 53 82 123 q 49 193 50 298 l 50 298 q 50 394 78 476 q 105 557 161 617 q 216 677 300 709 q 384 740 497 734 z"},"7":{"ha":545,"x_min":0,"x_max":545,"o":"m 45 698 l 17 512 l 27 512 q 38 542 55 557 q 72 572 102 572 l 102 572 l 407 572 l 341 414 q 328 385 309 344 q 289 302 266 255 q 243 208 220 161 q 196 114 175 72 q 153 30 137 0 l 137 0 l 268 0 q 275 29 288 71 q 301 113 317 160 q 332 207 348 254 q 364 301 379 341 q 393 380 404 406 l 404 406 l 524 700 l 45 698 z"},"8":{"ha":603,"x_min":0,"x_max":603,"o":"m 79 521 l 79 521 q 79 581 107 624 q 135 667 185 691 q 235 714 299 714 l 299 714 q 360 714 410 694 q 460 673 490 635 q 520 597 520 544 l 520 544 q 520 499 496 466 q 471 432 431 413 q 390 393 343 388 l 343 388 l 312 394 q 342 408 360 437 q 377 465 384 498 q 391 531 390 558 l 390 558 q 390 606 366 638 q 341 670 298 671 l 298 671 q 255 672 232 643 q 209 614 209 572 l 209 572 q 209 542 222 518 q 234 494 263 472 q 291 449 339 423 l 339 423 q 379 402 419 382 q 459 361 492 336 q 525 310 545 276 q 564 241 564 190 l 564 190 q 564 126 530 80 q 496 34 434 10 q 372 -14 289 -14 l 289 -14 q 242 -14 197 -4 q 151 6 115 28 q 79 49 59 84 q 38 118 39 168 l 39 168 q 39 207 54 236 q 69 265 93 286 q 116 306 143 320 q 170 334 196 343 q 222 351 241 356 l 241 356 l 280 355 q 234 336 203 294 q 171 252 171 182 l 171 182 q 170 112 204 72 q 237 31 295 28 l 295 28 q 334 26 363 41 q 391 55 407 81 q 423 106 423 136 l 423 136 q 423 162 413 182 q 403 201 384 218 q 364 235 336 252 q 307 268 270 287 l 270 287 q 239 303 206 324 q 172 344 144 372 q 115 399 97 437 q 79 474 79 521 z"},"9":{"ha":630,"x_min":0,"x_max":630,"o":"m 133 -38 l 133 -38 l 129 -31 q 222 -3 279 40 q 335 82 365 138 q 394 193 404 261 q 414 328 414 408 l 414 408 q 414 490 405 548 q 396 605 373 634 q 350 663 307 663 l 307 663 q 266 663 243 638 q 219 613 210 573 q 200 532 200 485 l 200 485 q 201 431 211 397 q 221 362 240 345 q 258 327 284 324 l 284 324 q 310 319 334 328 q 357 336 372 351 l 372 351 l 379 343 q 360 311 329 292 q 298 272 260 266 q 222 260 185 269 q 147 278 115 303 q 83 328 65 370 q 46 412 46 472 l 46 472 q 47 541 77 595 q 106 648 164 679 q 221 710 305 711 l 305 711 q 436 713 508 635 q 580 557 580 398 l 580 398 q 580 303 553 222 q 525 140 470 80 q 414 19 331 -12 q 247 -44 133 -38 z"}," ":{"ha":250,"x_min":0,"x_max":250,"o":""},"!":{"ha":269,"x_min":0,"x_max":269,"o":"m 133 -10 l 133 -10 q 103 -10 82 11 q 61 32 61 62 l 61 62 q 61 93 82 114 q 103 135 133 135 l 133 135 q 164 135 185 114 q 206 93 206 62 l 206 62 q 206 32 185 11 q 164 -10 133 -10 z m 193 379 l 157 206 l 111 206 l 76 379 l 58 702 l 212 702 l 193 379 z"},"\"":{"ha":363,"x_min":0,"x_max":363,"o":"m 62 700 l 62 700 l 169 714 q 170 695 165 664 q 160 633 147 601 q 134 568 111 541 q 88 513 52 500 l 52 500 l 38 505 q 53 549 59 579 q 65 609 66 637 q 66 664 62 700 z m 218 700 l 218 700 l 326 714 q 326 695 321 664 q 316 633 304 601 q 291 568 268 541 q 245 513 208 500 l 208 500 l 195 505 q 209 549 216 579 q 222 609 223 637 q 223 664 218 700 z"},"#":{"ha":575,"x_min":0,"x_max":575,"o":"m 89 0 l 212 700 l 262 700 l 139 0 l 89 0 z m 289 0 l 412 700 l 462 700 l 339 0 l 289 0 z m 64 497 l 534 497 l 534 449 l 64 449 l 64 497 z m 20 265 l 490 265 l 490 217 l 20 217 l 20 265 z"},"$":{"ha":558,"x_min":0,"x_max":558,"o":"m 266 714 l 266 714 q 288 714 319 712 q 349 710 381 707 q 412 703 436 700 q 459 696 468 692 l 468 692 l 456 557 l 446 557 q 446 609 408 641 q 369 672 303 672 l 303 672 q 266 672 238 659 q 209 646 192 625 q 175 603 174 576 l 174 576 q 172 546 193 524 q 213 502 244 483 l 244 483 l 435 359 q 480 333 504 292 q 527 250 524 193 l 524 193 q 520 95 451 41 q 381 -14 262 -14 l 262 -14 q 190 -14 134 3 q 77 20 50 47 l 50 47 q 42 69 43 100 q 44 131 53 163 q 61 195 74 216 l 74 216 l 83 216 q 79 164 101 121 q 123 78 167 53 q 210 28 271 28 l 271 28 q 315 29 346 44 q 377 59 393 85 q 409 110 409 140 l 409 140 q 409 170 391 195 q 372 220 330 244 l 330 244 l 155 360 q 101 390 78 437 q 54 484 59 539 l 59 539 q 63 592 91 632 q 118 671 163 693 q 207 714 266 714 z m 349 704 l 469 704 l 467 683 l 349 683 l 349 704 z m 233 -99 l 301 788 l 342 787 l 274 -102 l 233 -99 z"},"%":{"ha":740,"x_min":0,"x_max":740,"o":"m 224 714 l 224 714 q 296 714 331 667 q 366 620 355 537 l 355 537 q 344 454 293 408 q 241 361 161 361 l 161 361 q 89 361 55 409 q 20 457 33 543 l 33 543 q 46 624 98 669 q 149 714 224 714 z m 220 682 l 220 682 q 192 682 170 644 q 148 605 138 537 l 138 537 q 127 469 137 431 q 146 393 173 393 l 173 393 q 203 394 225 432 q 247 469 257 536 l 257 536 q 267 605 257 644 q 247 682 220 682 z m 567 695 l 194 -16 l 157 0 l 507 662 q 481 647 453 639 q 424 631 395 634 l 395 634 q 362 638 336 652 q 309 665 285 676 q 260 687 231 685 l 231 685 l 223 714 q 258 714 282 707 q 305 700 322 690 q 339 680 357 672 q 374 664 396 662 l 396 662 q 425 660 450 669 q 475 677 497 689 q 518 701 534 709 l 534 709 l 567 695 z m 567 339 l 567 339 q 637 339 673 292 q 708 245 698 162 l 698 162 q 688 79 636 33 q 584 -14 504 -14 l 504 -14 q 432 -14 397 34 q 362 82 376 168 l 376 168 q 389 249 440 294 q 491 339 567 339 z m 559 307 l 559 307 q 531 307 509 269 q 487 230 477 162 l 477 162 q 466 94 476 56 q 485 18 511 18 l 511 18 q 541 18 564 56 q 586 94 596 161 l 596 161 q 606 230 596 269 q 586 307 559 307 z"},"&":{"ha":807,"x_min":0,"x_max":807,"o":"m 372 714 l 372 714 q 412 714 451 706 q 489 698 521 683 q 553 667 570 643 l 570 643 l 534 500 l 525 500 q 525 545 512 584 q 499 623 472 648 q 444 672 398 672 l 398 672 q 348 672 317 639 q 285 606 285 555 l 285 555 q 285 497 329 445 q 372 392 454 320 l 454 320 q 475 302 502 278 q 528 254 555 232 q 581 210 599 194 l 599 194 q 653 148 697 110 q 741 72 778 47 q 815 21 848 11 l 848 11 l 848 0 q 809 -4 758 -5 q 707 -7 653 5 q 599 17 548 53 l 548 53 q 522 72 492 96 q 462 120 433 145 q 403 169 379 190 q 354 211 339 224 l 339 224 q 281 274 234 323 q 186 372 158 424 q 130 476 130 536 l 130 536 q 130 582 150 616 q 170 649 205 671 q 239 693 283 704 q 326 714 372 714 z m 708 346 l 708 346 q 710 292 701 241 q 692 189 670 144 q 647 99 609 64 q 570 29 513 10 q 455 -10 375 -10 l 375 -10 q 330 -10 281 -3 q 232 4 187 20 q 142 35 106 62 q 69 88 48 126 q 27 164 27 216 l 27 216 q 27 257 41 288 q 55 318 79 341 q 102 363 129 377 q 156 391 183 399 q 209 407 229 408 l 229 408 l 248 389 q 240 381 229 369 q 218 357 207 339 q 196 321 190 296 q 183 270 185 236 l 185 236 q 187 186 207 148 q 227 109 259 84 q 290 58 330 45 q 370 32 413 32 l 413 32 q 466 32 506 55 q 545 77 571 113 q 597 149 609 192 q 621 235 619 277 q 617 319 601 353 l 601 353 q 590 377 575 388 q 559 399 539 399 l 539 399 l 524 399 l 524 409 l 758 409 l 758 399 l 744 399 q 721 399 715 385 q 708 370 708 346 z"},"'":{"ha":200,"x_min":0,"x_max":200,"o":"m 56 700 l 56 700 l 164 714 q 164 695 159 664 q 154 633 141 601 q 128 568 105 541 q 82 513 46 500 l 46 500 l 32 505 q 47 549 53 579 q 59 609 60 637 q 60 664 56 700 z"},"(":{"ha":423,"x_min":0,"x_max":423,"o":"m 388 732 l 394 724 q 346 701 311 648 q 275 594 257 515 q 238 436 239 336 l 239 336 q 241 228 261 143 q 280 58 314 -1 q 348 -60 392 -91 l 392 -91 l 386 -100 q 314 -78 259 -35 q 203 8 166 67 q 129 125 110 194 q 90 262 90 334 l 90 334 q 90 410 109 477 q 128 544 166 597 q 203 650 259 685 q 315 720 388 732 l 388 732 z"},")":{"ha":423,"x_min":0,"x_max":423,"o":"m 30 724 l 30 724 l 36 732 q 109 720 165 685 q 220 650 258 597 q 296 544 315 477 q 334 410 334 334 l 334 334 q 334 262 315 194 q 295 125 258 67 q 220 8 165 -35 q 110 -78 38 -100 l 38 -100 l 32 -91 q 76 -60 110 -1 q 144 58 164 143 q 183 228 185 336 l 185 336 q 187 436 168 515 q 149 594 114 648 q 78 701 30 724 z"},"*":{"ha":388,"x_min":0,"x_max":388,"o":"m 321 512 l 292 474 l 247 459 l 205 538 l 195 600 l 201 605 l 257 576 l 321 512 z m 143 459 l 98 473 l 69 511 l 132 576 l 188 605 l 195 600 l 184 538 l 143 459 z m 37 611 l 37 658 l 65 697 l 145 657 l 191 613 l 188 605 l 125 596 l 37 611 z m 149 759 l 195 773 l 240 759 l 227 670 l 199 613 l 191 613 l 163 670 l 149 759 z m 325 698 l 352 659 l 353 611 l 264 596 l 201 605 l 199 613 l 244 657 l 325 698 z m 192 614 l 198 614 l 201 612 l 202 606 l 201 604 l 196 600 q 195 600 194 600 q 193 600 193 600 l 193 600 l 188 604 l 188 607 l 189 613 l 192 614 z"},"+":{"ha":481,"x_min":0,"x_max":481,"o":"m 40 281 l 40 338 l 442 338 l 442 281 l 40 281 z m 269 109 l 212 109 l 212 511 l 269 511 l 269 109 z"},",":{"ha":231,"x_min":0,"x_max":231,"o":"m 63 116 l 63 116 q 80 132 103 134 q 125 135 147 124 q 169 112 179 87 l 179 87 q 196 49 192 12 q 187 -26 166 -56 q 145 -86 114 -102 q 83 -118 46 -113 l 46 -113 l 43 -102 q 65 -93 77 -75 q 89 -58 88 -35 q 86 -12 66 10 l 66 10 q 53 26 48 45 q 42 64 46 84 q 49 103 63 116 z"},"-":{"ha":380,"x_min":0,"x_max":380,"o":"m 32 292 l 40 325 l 340 325 l 348 292 l 340 258 l 40 258 l 32 292 z"},".":{"ha":222,"x_min":0,"x_max":222,"o":"m 111 -10 l 111 -10 q 81 -10 60 11 q 39 32 39 62 l 39 62 q 39 93 60 114 q 81 135 111 135 l 111 135 q 142 135 163 114 q 184 93 184 62 l 184 62 q 184 32 163 11 q 142 -10 111 -10 z"},"/":{"ha":426,"x_min":0,"x_max":426,"o":"m 9 10 l 369 719 l 418 697 l 57 -14 l 9 10 z"},":":{"ha":222,"x_min":0,"x_max":222,"o":"m 111 373 l 111 373 q 81 373 60 394 q 39 415 39 445 l 39 445 q 39 476 60 497 q 81 518 111 518 l 111 518 q 142 518 163 497 q 184 476 184 445 l 184 445 q 184 415 163 394 q 142 373 111 373 z m 111 -10 l 111 -10 q 81 -10 60 11 q 39 32 39 62 l 39 62 q 39 93 60 114 q 81 135 111 135 l 111 135 q 142 135 163 114 q 184 93 184 62 l 184 62 q 184 32 163 11 q 142 -10 111 -10 z"},";":{"ha":231,"x_min":0,"x_max":231,"o":"m 63 116 l 63 116 q 80 132 103 134 q 125 135 147 124 q 169 112 179 87 l 179 87 q 196 49 192 12 q 187 -26 166 -56 q 145 -86 114 -102 q 83 -118 46 -113 l 46 -113 l 43 -102 q 65 -93 77 -75 q 89 -58 88 -35 q 86 -12 66 10 l 66 10 q 53 26 48 45 q 42 64 46 84 q 49 103 63 116 z m 111 401 l 111 401 q 81 401 60 422 q 39 443 39 473 l 39 473 q 39 504 60 525 q 81 546 111 546 l 111 546 q 142 546 163 525 q 184 504 184 473 l 184 473 q 184 443 163 422 q 142 401 111 401 z"},"<":{"ha":493,"x_min":0,"x_max":493,"o":"m 442 525 l 442 463 l 70 286 l 71 333 l 442 156 l 442 94 l 40 283 l 40 336 l 442 525 z"},"=":{"ha":481,"x_min":0,"x_max":481,"o":"m 40 358 l 40 415 l 442 415 l 442 358 l 40 358 z m 40 183 l 40 240 l 442 240 l 442 183 l 40 183 z"},">":{"ha":481,"x_min":0,"x_max":481,"o":"m 412 286 l 40 463 l 40 525 l 442 336 l 442 283 l 40 94 l 40 156 l 411 333 l 412 286 z"},"?":{"ha":462,"x_min":0,"x_max":462,"o":"m 42 518 l 8 625 q 31 665 81 690 q 131 714 200 714 l 200 714 q 308 714 366 668 q 424 622 424 540 l 424 540 q 424 508 415 484 q 405 459 389 438 q 372 416 352 396 q 331 376 309 355 q 286 334 265 310 l 265 310 q 251 294 240 279 q 228 264 226 246 q 224 227 238 203 l 238 203 l 230 197 q 194 213 172 242 q 149 271 152 310 l 152 310 q 154 337 166 357 q 177 376 194 395 q 210 413 227 434 q 243 454 254 481 q 264 508 264 545 l 264 545 q 263 606 237 639 q 210 672 161 672 l 161 672 q 110 672 81 634 q 52 595 52 518 l 52 518 l 42 518 z m 208 -10 l 208 -10 q 178 -10 157 11 q 135 32 135 62 l 135 62 q 135 93 157 114 q 178 135 208 135 l 208 135 q 238 135 259 114 q 280 93 280 62 l 280 62 q 280 32 259 11 q 238 -10 208 -10 z"},"@":{"ha":990,"x_min":0,"x_max":990,"o":"m 626 688 l 626 688 q 737 673 812 620 q 886 567 922 488 q 957 408 951 312 l 951 312 q 946 222 910 141 q 873 60 808 -2 q 743 -64 653 -96 q 563 -129 450 -123 q 337 -118 203 -63 l 203 -63 l 199 -53 q 301 -94 393 -97 q 485 -100 562 -71 q 639 -42 697 14 q 754 70 789 147 q 824 224 831 316 l 831 316 q 839 406 816 476 q 793 545 744 590 q 695 635 622 648 l 622 648 q 561 659 499 650 q 436 640 378 608 q 319 576 270 522 q 220 468 184 390 l 184 390 q 161 340 149 291 q 137 242 138 202 q 138 162 154 138 q 169 113 200 112 l 200 112 q 227 112 253 130 q 279 148 303 176 q 327 204 349 235 q 370 266 389 291 l 389 291 l 516 464 q 516 464 528 479 q 540 494 554 513 q 567 531 571 541 l 571 541 l 578 541 l 564 471 l 430 280 q 381 211 344 166 q 307 120 274 97 q 240 74 200 73 l 200 73 q 152 71 115 96 q 77 120 56 165 q 35 209 36 268 q 36 327 64 395 l 64 395 q 96 471 152 531 q 208 591 283 630 q 357 669 445 685 q 532 701 626 688 z m 358 238 l 546 238 l 534 207 l 346 207 l 358 238 z m 531 137 l 645 137 q 649 112 660 101 q 670 90 685 90 l 685 90 q 684 90 687 90 q 690 90 690 90 l 690 90 l 688 83 l 482 83 l 483 90 l 490 90 q 502 90 518 103 q 534 115 531 137 l 531 137 z m 501 417 l 578 541 l 653 87 l 537 87 l 501 417 z"},"A":{"ha":717,"x_min":0,"x_max":717,"o":"m 293 527 l 354 720 l 681 6 l 501 6 l 293 527 z m 69 73 l 139 73 q 131 53 136 39 q 141 25 153 18 q 165 10 177 10 l 177 10 l 186 10 l 186 0 l -28 0 l -28 10 q -28 10 -23 10 q -19 10 -19 10 l -19 10 q 4 10 29 25 q 53 39 69 73 l 69 73 z m 345 720 l 354 720 l 358 598 l 110 3 l 37 3 l 296 589 q 299 595 307 612 q 314 628 323 649 q 331 670 338 690 q 345 709 345 720 l 345 720 z m 165 238 l 459 238 l 459 196 l 165 196 l 165 238 z m 474 73 l 474 73 l 649 73 q 666 39 690 25 q 714 10 737 10 l 737 10 q 737 10 741 10 q 745 10 745 10 l 745 10 l 745 0 l 427 0 l 427 10 l 436 10 q 456 10 471 27 q 486 43 474 73 z"},"B":{"ha":674,"x_min":0,"x_max":674,"o":"m 158 700 l 158 700 l 331 700 q 404 700 462 683 q 519 665 552 628 q 585 590 585 529 l 585 529 q 585 483 568 451 q 550 419 522 402 q 494 385 463 381 l 463 381 q 513 377 554 353 q 594 329 617 289 q 640 249 640 195 l 640 195 q 640 131 605 88 q 570 44 507 22 q 443 0 359 0 l 359 0 l 260 0 q 260 0 261 12 q 261 23 261 34 q 261 45 261 45 l 261 45 l 315 45 q 360 45 395 62 q 429 79 449 115 q 468 151 468 207 l 468 207 q 468 251 455 282 q 441 313 419 333 q 396 352 366 361 q 336 370 303 370 l 303 370 l 303 379 q 326 379 348 387 q 370 394 388 410 q 405 426 415 453 q 425 479 425 516 l 425 516 q 425 567 410 598 q 394 629 365 643 q 336 657 298 657 l 298 657 l 168 657 q 168 658 166 669 q 163 679 161 690 q 158 700 158 700 z m 119 700 l 269 700 l 269 0 l 119 0 l 119 700 z m 119 73 l 122 73 l 122 0 l 42 0 l 42 10 q 44 10 49 10 q 54 10 55 10 l 55 10 q 81 10 100 29 q 118 47 119 73 l 119 73 z m 122 700 l 122 627 l 119 627 q 118 653 100 672 q 81 690 55 690 l 55 690 q 54 690 49 690 q 44 690 42 690 l 42 690 l 42 700 l 122 700 z"},"C":{"ha":780,"x_min":0,"x_max":780,"o":"m 714 292 l 722 292 l 731 120 q 709 83 672 53 q 635 23 580 5 q 525 -14 450 -14 l 450 -14 q 328 -13 237 31 q 145 74 95 155 q 45 236 45 351 l 45 351 q 45 463 94 545 q 143 626 235 670 q 326 714 453 714 l 453 714 q 533 714 597 698 q 660 682 703 659 l 703 659 l 704 488 l 695 488 q 668 587 607 630 q 546 672 464 672 l 464 672 q 384 672 327 633 q 270 594 239 523 q 208 452 208 353 l 208 353 q 208 254 238 182 q 267 110 322 70 q 376 30 450 28 l 450 28 q 527 28 580 53 q 633 78 666 136 q 698 194 714 292 l 714 292 z"},"D":{"ha":828,"x_min":0,"x_max":828,"o":"m 156 700 l 405 700 q 523 700 609 658 q 695 615 742 537 q 788 458 788 350 l 788 350 q 788 242 742 164 q 695 85 609 43 q 523 0 405 0 l 405 0 l 167 0 l 166 42 q 195 42 227 42 q 258 42 288 42 q 318 42 342 42 q 365 42 379 42 q 393 42 393 42 l 393 42 q 465 42 517 80 q 569 117 597 186 q 625 255 625 350 l 625 350 q 625 445 597 514 q 569 583 517 621 q 465 658 393 658 l 393 658 q 393 658 379 658 q 364 658 339 658 q 314 658 283 658 q 252 658 219 658 q 186 658 156 658 l 156 658 l 156 700 z m 119 700 l 269 700 l 269 0 l 119 0 l 119 700 z m 119 73 l 122 73 l 122 0 l 42 0 l 42 10 q 42 10 49 10 q 55 10 55 10 l 55 10 q 81 10 100 29 q 118 47 119 73 l 119 73 z m 122 700 l 122 627 l 119 627 q 119 653 100 672 q 81 690 55 690 l 55 690 q 55 690 49 690 q 43 690 43 690 l 43 690 l 42 700 l 122 700 z"},"E":{"ha":632,"x_min":0,"x_max":632,"o":"m 119 700 l 269 700 l 269 0 l 119 0 l 119 700 z m 266 43 l 533 43 l 557 0 l 266 0 l 266 43 z m 266 366 l 496 366 l 496 324 l 266 324 l 266 366 z m 266 700 l 545 700 l 545 657 l 266 657 l 266 700 z m 596 205 l 606 205 l 560 0 l 364 0 l 400 43 q 450 43 488 63 q 526 82 553 119 q 580 155 596 205 l 596 205 z m 401 326 l 496 326 l 496 230 l 486 230 l 486 238 q 486 275 462 299 q 438 323 401 324 l 401 324 l 401 326 z m 486 460 l 496 460 l 496 364 l 401 364 l 401 366 q 438 367 462 392 q 486 416 486 453 l 486 453 l 486 460 z m 433 660 l 545 660 l 545 543 l 535 543 l 535 555 q 535 601 508 629 q 480 657 433 658 l 433 658 l 433 660 z m 545 718 l 545 718 l 545 689 l 423 700 q 445 700 470 703 q 494 706 515 710 q 536 714 545 718 z m 119 73 l 122 73 l 122 0 l 42 0 l 42 10 q 42 10 49 10 q 55 10 55 10 l 55 10 q 81 10 100 29 q 118 47 119 73 l 119 73 z m 122 700 l 122 627 l 119 627 q 118 653 100 672 q 81 690 55 690 l 55 690 q 55 690 49 690 q 42 690 42 690 l 42 690 l 42 700 l 122 700 z"},"F":{"ha":596,"x_min":0,"x_max":596,"o":"m 119 700 l 269 700 l 269 0 l 119 0 l 119 700 z m 266 366 l 496 366 l 496 324 l 266 324 l 266 366 z m 266 700 l 545 700 l 545 657 l 266 657 l 266 700 z m 401 326 l 496 326 l 496 230 l 486 230 l 486 238 q 486 275 462 299 q 438 323 401 324 l 401 324 l 401 326 z m 486 460 l 496 460 l 496 364 l 401 364 l 401 366 q 438 367 462 392 q 486 416 486 453 l 486 453 l 486 460 z m 437 660 l 545 660 l 545 549 l 535 549 l 535 559 q 535 604 509 631 q 482 657 437 657 l 437 657 l 437 660 z m 545 718 l 545 718 l 545 689 l 423 700 q 445 700 470 703 q 494 706 515 710 q 536 714 545 718 z m 119 73 l 122 73 l 122 0 l 42 0 l 42 10 q 42 10 49 10 q 55 10 55 10 l 55 10 q 81 10 100 29 q 118 47 119 73 l 119 73 z m 122 700 l 122 627 l 119 627 q 118 653 100 672 q 81 690 55 690 l 55 690 q 55 690 49 690 q 42 690 42 690 l 42 690 l 42 700 l 122 700 z m 266 0 l 266 73 l 269 73 q 270 47 289 29 q 307 10 333 10 l 333 10 q 333 10 339 10 q 345 10 346 10 l 346 10 l 346 0 l 266 0 z"},"G":{"ha":836,"x_min":0,"x_max":836,"o":"m 755 280 l 755 280 l 755 115 q 731 85 684 55 q 636 25 570 6 q 504 -14 423 -14 l 423 -14 q 309 -14 224 31 q 139 75 92 157 q 45 239 45 351 l 45 351 q 45 463 92 544 q 138 625 225 670 q 311 714 429 714 l 429 714 q 484 714 536 707 q 588 699 632 687 q 676 675 705 659 l 705 659 l 707 488 l 698 488 q 679 556 643 597 q 607 637 560 655 q 512 672 459 672 l 459 672 q 378 672 322 633 q 265 593 237 520 q 208 447 208 345 l 208 345 q 208 249 235 178 q 261 106 312 68 q 363 29 436 28 l 436 28 q 473 28 508 40 q 542 51 568 73 q 594 95 605 127 l 605 127 l 606 280 q 606 325 555 325 l 555 325 l 539 325 l 539 335 l 820 335 l 820 325 l 805 325 q 753 325 755 280 z"},"H":{"ha":862,"x_min":0,"x_max":862,"o":"m 593 700 l 743 700 l 743 0 l 593 0 l 593 700 z m 119 700 l 269 700 l 269 0 l 119 0 l 119 700 z m 259 370 l 602 370 l 602 327 l 259 327 l 259 370 z m 119 73 l 122 73 l 122 0 l 42 0 l 42 10 q 42 10 49 10 q 55 10 55 10 l 55 10 q 81 10 100 29 q 118 47 119 73 l 119 73 z m 122 700 l 122 627 l 119 627 q 118 653 100 672 q 81 690 55 690 l 55 690 q 55 690 49 690 q 42 690 42 690 l 42 690 l 42 700 l 122 700 z m 266 0 l 266 73 l 269 73 q 270 47 289 29 q 307 10 333 10 l 333 10 q 333 10 339 10 q 345 10 346 10 l 346 10 l 346 0 l 266 0 z m 269 627 l 266 627 l 266 700 l 346 700 l 346 690 q 345 690 339 690 q 333 690 333 690 l 333 690 q 307 690 289 672 q 270 653 269 627 l 269 627 z m 593 73 l 596 73 l 596 0 l 516 0 l 516 10 q 517 10 523 10 q 529 10 529 10 l 529 10 q 555 10 574 29 q 593 47 593 73 l 593 73 z m 596 700 l 596 627 l 593 627 q 593 653 574 672 q 555 690 529 690 l 529 690 q 529 690 523 690 q 517 690 516 690 l 516 690 l 516 700 l 596 700 z m 740 0 l 740 73 l 743 73 q 744 47 763 29 q 781 10 807 10 l 807 10 q 807 10 814 10 q 820 10 820 10 l 820 10 l 820 0 l 740 0 z m 743 627 l 740 627 l 740 700 l 820 700 l 820 690 q 820 690 814 690 q 807 690 807 690 l 807 690 q 781 690 763 672 q 744 653 743 627 l 743 627 z"},"I":{"ha":387,"x_min":0,"x_max":387,"o":"m 119 700 l 269 700 l 269 0 l 119 0 l 119 700 z m 119 73 l 122 73 l 122 0 l 42 0 l 42 10 q 42 10 49 10 q 55 10 55 10 l 55 10 q 81 10 100 29 q 118 47 119 73 l 119 73 z m 122 700 l 122 627 l 119 627 q 118 653 100 672 q 81 690 55 690 l 55 690 q 55 690 49 690 q 42 690 42 690 l 42 690 l 42 700 l 122 700 z m 266 0 l 266 73 l 269 73 q 270 47 289 29 q 307 10 333 10 l 333 10 q 333 10 339 10 q 345 10 346 10 l 346 10 l 346 0 l 266 0 z m 269 627 l 266 627 l 266 700 l 346 700 l 346 690 q 345 690 339 690 q 333 690 333 690 l 333 690 q 307 690 289 672 q 270 653 269 627 l 269 627 z"},"J":{"ha":385,"x_min":0,"x_max":385,"o":"m 122 700 l 272 700 l 272 30 q 272 -25 250 -69 q 228 -114 191 -145 q 153 -176 105 -190 q 57 -205 5 -200 l 5 -200 l 5 -191 q 47 -173 73 -137 q 99 -102 111 -57 q 122 -13 122 33 l 122 33 l 122 700 z m 125 700 l 125 627 l 122 627 q 121 653 103 672 q 84 690 58 690 l 58 690 q 58 690 52 690 q 45 690 45 690 l 45 690 l 45 700 l 125 700 z m 272 627 l 269 627 l 269 700 l 349 700 l 349 690 q 349 690 343 690 q 336 690 336 690 l 336 690 q 310 690 292 672 q 273 653 272 627 l 272 627 z"},"K":{"ha":757,"x_min":0,"x_max":757,"o":"m 301 330 l 413 431 l 675 72 q 698 42 722 27 q 746 11 777 10 l 777 10 l 777 0 l 695 0 q 684 0 659 1 q 633 2 601 9 q 569 16 537 34 q 504 51 480 83 l 480 83 q 475 90 460 110 q 445 130 425 158 q 405 186 384 216 q 362 245 343 271 q 324 297 313 314 q 301 330 301 330 l 301 330 z m 576 693 l 664 693 l 363 336 l 301 330 l 576 693 z m 730 700 l 734 700 l 734 691 l 730 691 q 697 691 669 678 q 640 664 620 642 l 620 642 l 539 644 q 551 661 543 676 q 535 691 515 691 l 515 691 l 505 691 l 505 700 l 730 700 z m 119 700 l 269 700 l 269 0 l 119 0 l 119 700 z m 119 73 l 122 73 l 122 0 l 42 0 l 42 10 q 43 10 49 10 q 54 10 55 10 l 55 10 q 81 10 100 29 q 118 47 119 73 l 119 73 z m 122 700 l 122 627 l 119 627 q 118 653 100 672 q 81 690 55 690 l 55 690 q 54 690 49 690 q 43 690 42 690 l 42 690 l 42 700 l 122 700 z m 266 0 l 266 73 l 269 73 q 270 47 289 29 q 307 10 333 10 l 333 10 q 334 10 340 10 q 345 10 346 10 l 346 10 l 346 0 l 266 0 z m 269 627 l 266 627 l 266 700 l 346 700 l 346 690 q 345 690 340 690 q 334 690 333 690 l 333 690 q 307 690 289 672 q 270 653 269 627 l 269 627 z"},"L":{"ha":617,"x_min":0,"x_max":617,"o":"m 119 700 l 269 700 l 269 0 l 119 0 l 119 700 z m 266 43 l 533 43 l 557 0 l 266 0 l 266 43 z m 596 205 l 606 205 l 560 0 l 364 0 l 400 43 q 450 43 488 63 q 526 82 553 119 q 580 155 596 205 l 596 205 z m 119 73 l 122 73 l 122 0 l 42 0 l 42 10 q 42 10 49 10 q 55 10 55 10 l 55 10 q 81 10 100 29 q 118 47 119 73 l 119 73 z m 122 700 l 122 627 l 119 627 q 118 653 100 672 q 81 690 55 690 l 55 690 q 55 690 49 690 q 42 690 42 690 l 42 690 l 42 700 l 122 700 z m 269 627 l 266 627 l 266 700 l 346 700 l 346 690 q 345 690 339 690 q 333 690 333 690 l 333 690 q 307 690 289 672 q 270 653 269 627 l 269 627 z"},"M":{"ha":953,"x_min":0,"x_max":953,"o":"m 403 67 l 780 714 l 788 605 l 491 90 q 491 90 481 73 q 471 55 462 30 q 452 5 452 -20 l 452 -20 l 442 -20 l 403 67 z m 80 73 l 102 73 l 102 0 l -9 0 l -9 10 q -8 10 0 10 q 7 10 7 10 l 7 10 q 34 10 55 27 q 76 43 80 73 l 80 73 z m 139 57 l 146 57 q 146 56 146 55 q 146 54 146 52 l 146 52 q 146 36 158 23 q 169 9 185 9 l 185 9 l 200 9 l 200 0 l 139 0 l 139 57 z m 70 0 l 163 714 l 172 714 l 207 614 l 140 0 l 70 0 z m 146 477 l 172 714 l 499 177 l 442 -20 l 146 477 z m 780 714 l 789 714 l 884 0 l 723 0 l 673 460 l 780 714 z m 853 0 l 853 73 l 874 73 q 879 43 900 27 q 921 10 947 10 l 947 10 q 947 10 955 10 q 963 10 963 10 l 963 10 l 963 0 l 853 0 z m 717 57 l 717 57 l 724 57 l 724 0 l 663 0 l 663 9 l 678 9 q 695 9 706 23 q 717 36 717 52 l 717 52 q 717 54 717 55 q 717 56 717 57 z"},"N":{"ha":865,"x_min":0,"x_max":865,"o":"m 120 593 l 108 715 l 746 107 l 758 -14 l 120 593 z m 110 71 l 113 71 l 113 0 l 30 0 l 30 10 q 30 10 39 10 q 48 10 49 10 l 49 10 q 74 10 92 28 q 110 46 110 71 l 110 71 z m 250 71 l 253 71 q 253 46 271 28 q 289 10 314 10 l 314 10 q 315 10 324 10 q 333 10 333 10 l 333 10 l 333 0 l 250 0 l 250 71 z m 98 715 l 108 715 l 252 562 l 253 0 l 110 0 l 110 590 q 110 646 104 681 q 98 715 98 715 l 98 715 z m 613 700 l 755 700 l 755 114 q 755 77 758 48 q 761 18 764 2 q 767 -14 767 -14 l 767 -14 l 758 -14 l 613 148 l 613 700 z m 752 700 l 835 700 l 835 690 q 835 690 826 690 q 817 690 817 690 l 817 690 q 792 690 774 673 q 756 655 755 629 l 755 629 l 752 629 l 752 700 z m 532 690 l 532 700 l 615 700 l 615 629 l 613 629 q 612 655 595 673 q 577 690 551 690 l 551 690 q 551 690 542 690 q 533 690 532 690 l 532 690 z"},"O":{"ha":879,"x_min":0,"x_max":879,"o":"m 442 714 l 442 714 q 562 714 651 670 q 739 625 788 544 q 836 463 836 350 l 836 350 q 836 238 788 157 q 739 75 651 31 q 562 -14 442 -14 l 442 -14 q 322 -14 234 31 q 145 75 97 156 q 49 237 49 350 l 49 350 q 49 462 97 544 q 145 625 234 670 q 322 714 442 714 z m 442 28 l 442 28 q 513 28 564 68 q 615 107 643 179 q 671 251 671 350 l 671 350 q 671 449 643 521 q 615 593 564 633 q 513 672 442 672 l 442 672 q 372 672 321 633 q 269 593 241 521 q 213 449 213 350 l 213 350 q 213 251 241 179 q 269 107 321 68 q 372 28 442 28 z"},"P":{"ha":656,"x_min":0,"x_max":656,"o":"m 259 700 l 259 700 l 379 700 q 465 700 519 675 q 572 650 599 607 q 625 563 627 508 l 627 508 q 629 457 610 415 q 591 373 558 345 q 525 317 483 305 q 440 292 395 299 q 349 305 306 333 l 306 333 l 306 343 q 306 343 319 343 q 331 343 351 347 q 370 351 392 362 q 413 373 432 396 q 451 419 461 457 l 461 457 q 465 470 467 487 q 468 503 467 517 l 467 517 q 466 581 433 620 q 399 658 338 658 l 338 658 l 269 658 q 269 658 267 669 q 264 679 262 690 q 259 700 259 700 z m 122 700 l 272 700 l 272 0 l 122 0 l 122 700 z m 122 73 l 125 73 l 125 0 l 45 0 l 45 10 q 46 10 52 10 q 57 10 58 10 l 58 10 q 84 10 103 29 q 121 47 122 73 l 122 73 z m 125 700 l 125 627 l 122 627 q 122 653 103 672 q 84 690 58 690 l 58 690 q 57 690 52 690 q 47 690 46 690 l 46 690 l 45 700 l 125 700 z m 269 0 l 269 73 l 272 73 q 273 47 292 29 q 310 10 336 10 l 336 10 q 337 10 343 10 q 348 10 349 10 l 349 10 l 349 0 l 269 0 z"},"Q":{"ha":883,"x_min":0,"x_max":883,"o":"m 435 -14 l 435 -14 l 406 26 q 464 22 511 16 q 558 9 600 0 q 642 -10 685 -23 q 728 -37 777 -55 q 826 -74 888 -98 l 888 -98 q 955 -124 1021 -136 q 1086 -148 1146 -145 q 1206 -142 1258 -124 q 1310 -106 1351 -72 l 1351 -72 l 1357 -76 q 1354 -123 1327 -164 q 1300 -205 1252 -234 q 1204 -263 1139 -273 q 1073 -284 994 -270 q 915 -257 826 -212 l 826 -212 q 770 -184 720 -151 q 670 -119 623 -89 q 575 -59 529 -38 q 483 -18 435 -14 z m 441 714 l 441 714 q 561 714 650 670 q 738 625 786 544 q 834 463 834 350 l 834 350 q 834 238 786 157 q 738 75 649 31 q 560 -14 441 -14 l 441 -14 q 321 -14 233 31 q 144 75 96 156 q 48 237 48 350 l 48 350 q 48 462 96 544 q 144 625 233 670 q 321 714 441 714 z m 441 28 l 441 28 q 512 28 564 68 q 615 107 643 179 q 670 251 670 350 l 670 350 q 670 449 643 521 q 615 593 564 633 q 512 672 441 672 l 441 672 q 370 672 319 633 q 267 593 240 521 q 212 449 212 350 l 212 350 q 212 251 240 179 q 268 107 320 68 q 371 28 441 28 z"},"R":{"ha":747,"x_min":0,"x_max":747,"o":"m 259 700 l 259 700 l 388 700 q 433 700 476 690 q 519 680 553 658 q 586 636 606 600 q 626 564 626 511 l 626 511 q 626 469 609 428 q 591 386 555 357 q 519 327 462 321 l 462 321 q 494 311 521 285 q 547 259 564 233 l 564 233 q 565 231 576 215 q 586 199 602 176 q 617 152 634 128 q 651 104 665 86 l 665 86 q 687 59 705 43 q 723 26 743 19 q 763 11 789 10 l 789 10 l 789 0 l 691 0 q 637 0 593 10 q 549 19 515 42 q 481 65 456 104 l 456 104 q 448 116 439 135 q 429 153 419 174 q 409 195 400 215 q 390 234 383 250 q 376 266 373 275 l 373 275 q 360 307 343 323 q 325 339 305 342 l 305 342 l 305 352 q 308 352 317 352 q 326 352 336 352 l 336 352 q 363 352 389 363 q 414 374 434 399 q 454 424 462 468 l 462 468 q 464 477 466 489 q 467 501 466 516 l 466 516 q 463 588 430 622 q 397 655 348 656 l 348 656 q 334 657 318 657 q 301 656 288 656 q 274 656 269 656 l 269 656 q 269 657 267 668 q 264 678 262 689 q 259 700 259 700 z m 122 700 l 272 700 l 272 0 l 122 0 l 122 700 z m 122 73 l 125 73 l 125 0 l 45 0 l 45 10 q 46 10 52 10 q 57 10 58 10 l 58 10 q 84 10 103 29 q 121 47 122 73 l 122 73 z m 125 700 l 125 627 l 122 627 q 121 653 103 672 q 84 690 58 690 l 58 690 q 57 690 52 690 q 46 690 45 690 l 45 690 l 45 700 l 125 700 z m 269 0 l 269 73 l 272 73 q 272 47 291 29 q 310 10 336 10 l 336 10 q 338 10 343 10 q 348 10 348 10 l 348 10 l 348 0 l 269 0 z"},"S":{"ha":578,"x_min":0,"x_max":578,"o":"m 277 714 l 277 714 q 297 714 327 712 q 356 710 388 707 q 419 703 443 700 q 466 696 475 692 l 475 692 l 463 557 l 453 557 q 453 609 415 641 q 376 672 312 672 l 312 672 q 254 672 219 644 q 183 616 181 576 l 181 576 q 180 546 200 524 q 220 502 251 483 l 251 483 l 442 359 q 488 333 512 291 q 535 249 532 193 l 532 193 q 527 95 457 41 q 387 -14 267 -14 l 267 -14 q 223 -14 182 -6 q 140 1 108 15 q 76 28 57 47 l 57 47 q 49 69 50 100 q 51 131 60 163 q 68 195 81 216 l 81 216 l 90 216 q 86 165 109 122 q 131 78 175 53 q 218 27 278 28 l 278 28 q 344 29 380 62 q 416 94 416 140 l 416 140 q 416 171 398 196 q 379 221 337 244 l 337 244 l 162 360 q 109 390 85 437 q 61 484 66 539 l 66 539 q 71 591 97 631 q 123 670 169 692 q 214 714 277 714 z m 356 704 l 476 704 l 474 683 l 356 683 l 356 704 z"},"T":{"ha":667,"x_min":0,"x_max":667,"o":"m 259 697 l 409 697 l 409 0 l 259 0 l 259 697 z m 14 701 l 654 701 l 654 659 l 14 659 l 14 701 z m 542 662 l 654 662 l 654 544 l 644 545 l 644 556 q 644 603 617 631 q 589 658 542 659 l 542 659 l 542 662 z m 654 719 l 654 719 l 654 690 l 532 701 q 554 701 579 704 q 603 707 624 711 q 645 715 654 719 z m 259 73 l 262 73 l 262 0 l 182 0 l 182 10 q 182 10 189 10 q 195 10 195 10 l 195 10 q 221 10 240 29 q 258 47 259 73 l 259 73 z m 406 0 l 406 73 l 409 73 q 410 47 429 29 q 447 10 473 10 l 473 10 q 473 10 480 10 q 486 10 486 10 l 486 10 l 486 0 l 406 0 z m 14 662 l 125 662 l 125 659 q 79 658 52 631 q 24 603 24 556 l 24 556 l 24 545 l 14 544 l 14 662 z m 14 690 l 14 719 q 24 715 45 711 q 65 707 90 704 q 115 701 136 701 l 136 701 l 14 690 z"},"U":{"ha":821,"x_min":0,"x_max":821,"o":"m 107 700 l 257 700 l 257 260 q 257 189 281 137 q 304 85 348 57 q 391 29 451 29 l 451 29 q 512 29 557 56 q 601 82 625 131 q 649 180 649 247 l 649 247 l 649 700 l 721 700 l 721 253 q 721 171 687 111 q 652 51 588 19 q 523 -14 432 -14 l 432 -14 q 326 -14 253 19 q 180 51 144 111 q 107 170 107 252 l 107 252 l 107 700 z m 38 700 l 110 700 l 110 640 l 107 640 q 107 662 92 676 q 76 690 54 690 l 54 690 q 54 690 46 690 q 38 690 38 690 l 38 690 l 38 700 z m 255 700 l 326 700 l 326 690 q 326 690 318 690 q 310 690 310 690 l 310 690 q 288 690 273 676 q 257 662 257 640 l 257 640 l 255 640 l 255 700 z m 580 700 l 652 700 l 652 640 l 649 640 q 649 662 634 676 q 618 690 596 690 l 596 690 q 596 690 588 690 q 580 690 580 690 l 580 690 l 580 700 z m 719 700 l 790 700 l 790 690 q 790 690 782 690 q 774 690 774 690 l 774 690 q 752 690 737 676 q 721 662 721 640 l 721 640 l 719 640 l 719 700 z"},"V":{"ha":728,"x_min":0,"x_max":728,"o":"m 430 173 l 368 -20 l 37 694 l 216 694 l 430 173 z m 377 -20 l 368 -20 l 365 102 l 619 697 l 691 697 l 426 111 q 424 105 417 89 q 409 72 400 51 q 391 30 385 11 q 378 -9 377 -20 l 377 -20 z m 660 627 l 589 627 q 602 657 586 674 q 570 690 551 690 l 551 690 l 542 690 l 542 700 l 756 700 l 756 690 q 756 690 752 690 q 747 690 747 690 l 747 690 q 725 690 701 676 q 676 661 660 627 l 660 627 z m 244 627 l 244 627 l 68 627 q 52 661 28 676 q 3 690 -20 690 l -20 690 q -20 690 -24 690 q -28 690 -28 690 l -28 690 l -28 700 l 290 700 l 290 690 l 281 690 q 262 690 248 674 q 233 657 244 627 z"},"W":{"ha":971,"x_min":0,"x_max":971,"o":"m 300 -18 l 37 694 l 200 694 l 360 242 l 300 -18 z m 528 716 l 537 716 l 555 617 l 333 93 q 333 93 327 76 q 321 59 316 34 q 310 9 309 -18 l 309 -18 l 300 -18 l 272 101 l 528 716 z m 468 515 l 537 715 l 757 229 l 709 -18 l 468 515 z m 856 694 l 924 694 l 736 93 q 736 93 731 76 q 726 58 722 33 q 718 7 719 -18 l 719 -18 l 709 -18 l 681 81 l 856 694 z m 903 628 l 837 628 q 845 658 832 674 q 819 690 799 690 l 799 690 l 790 690 l 790 700 l 999 700 l 999 690 q 999 690 995 690 q 991 690 991 690 l 991 690 q 968 690 941 676 q 914 661 903 628 l 903 628 z m 225 628 l 225 628 l 62 628 q 49 661 23 676 q -3 690 -26 690 l -26 690 q -26 690 -30 690 q -34 690 -34 690 l -34 690 l -34 700 l 271 700 l 271 690 l 262 690 q 243 690 229 674 q 214 658 225 628 z"},"X":{"ha":729,"x_min":0,"x_max":729,"o":"m 57 700 l 232 700 l 685 1 l 508 1 l 57 700 z m 91 69 l 175 72 q 166 58 170 44 q 173 29 185 20 q 197 10 210 10 l 210 10 q 210 10 217 10 q 223 10 223 10 l 223 10 l 223 0 l -24 0 l -24 10 l -10 10 q 22 10 48 28 q 74 46 91 69 l 91 69 z m 42 0 l 298 362 l 347 324 l 126 0 l 42 0 z m 462 72 l 462 72 l 641 68 q 657 45 684 28 q 711 10 742 10 l 742 10 l 756 10 l 756 0 l 415 0 l 415 10 q 415 10 422 10 q 428 10 428 10 l 428 10 q 448 10 462 30 q 475 50 462 72 z m -14 700 l 326 700 l 326 690 q 326 690 320 690 q 314 690 314 690 l 314 690 q 300 690 289 681 q 277 671 274 657 q 271 642 279 628 l 279 628 l 101 631 q 85 654 59 672 q 32 690 0 690 l 0 690 l -14 690 l -14 700 z m 571 700 l 656 700 l 414 341 l 373 390 l 571 700 z m 478 700 l 724 700 l 724 690 l 710 690 q 679 690 653 672 q 626 654 609 631 l 609 631 l 525 628 q 534 642 531 657 q 527 671 516 681 q 505 690 491 690 l 491 690 q 491 690 485 690 q 479 690 479 690 l 479 690 l 478 700 z"},"Y":{"ha":702,"x_min":0,"x_max":702,"o":"m 42 699 l 213 699 l 418 327 l 276 313 l 42 699 z m 273 322 l 423 322 l 423 0 l 273 0 l 273 322 z m 362 312 l 584 699 l 662 699 l 413 302 l 362 312 z m 620 631 l 543 628 q 552 642 548 657 q 544 671 533 681 q 522 690 508 690 l 508 690 q 508 690 502 690 q 496 690 496 690 l 496 690 l 496 700 l 735 700 l 735 690 l 721 690 q 690 690 663 672 q 635 654 620 631 l 620 631 z m 252 628 l 252 628 l 83 631 q 69 654 42 672 q 15 690 -17 690 l -17 690 l -31 690 l -31 700 l 300 700 l 300 690 q 300 690 294 690 q 287 690 287 690 l 287 690 q 265 690 254 670 q 242 649 252 628 z m 273 73 l 276 73 l 276 0 l 196 0 l 196 10 q 196 10 202 10 q 208 10 209 10 l 209 10 q 235 10 254 29 q 272 47 273 73 l 273 73 z m 420 0 l 420 73 l 423 73 q 423 47 442 29 q 461 10 487 10 l 487 10 q 487 10 493 10 q 499 10 499 10 l 499 10 l 499 0 l 420 0 z"},"Z":{"ha":661,"x_min":0,"x_max":661,"o":"m 605 714 l 605 714 q 605 714 605 710 q 605 705 605 705 l 605 705 l 211 0 l 45 0 l 45 9 l 411 659 l 59 659 l 59 701 l 499 701 q 519 701 542 703 q 564 705 582 708 q 599 711 605 714 z m 115 42 l 594 42 l 588 0 l 115 0 l 115 42 z m 623 201 l 633 201 l 597 0 l 414 0 l 427 32 l 443 42 q 509 42 557 86 q 604 129 623 201 l 623 201 z m 170 662 l 170 659 q 123 658 96 631 q 69 603 69 556 l 69 556 l 69 544 l 59 544 l 59 662 l 170 662 z m 59 690 l 59 719 q 69 715 90 711 q 110 707 135 704 q 160 701 181 701 l 181 701 l 59 690 z"},"[":{"ha":417,"x_min":0,"x_max":417,"o":"m 120 -90 l 120 722 l 374 722 l 374 712 l 270 674 l 270 -42 l 377 -80 l 377 -90 l 120 -90 z"},"\\":{"ha":426,"x_min":0,"x_max":426,"o":"m 9 697 l 57 719 l 418 10 l 370 -14 l 9 697 z"},"]":{"ha":417,"x_min":0,"x_max":417,"o":"m 43 722 l 297 722 l 297 -90 l 40 -90 l 40 -80 l 147 -42 l 147 674 l 43 712 l 43 722 z"},"^":{"ha":553,"x_min":0,"x_max":553,"o":"m 245 377 l 35 176 l 114 176 l 277 329 l 440 176 l 518 176 l 310 377 l 245 377 z"},"_":{"ha":500,"x_min":0,"x_max":500,"o":"m 0 -102 l 0 -60 l 500 -60 l 500 -102 l 0 -102 z"},"`":{"ha":537,"x_min":0,"x_max":537,"o":"m 273 751 l 273 751 l 266 744 q 233 752 197 766 q 161 780 126 798 q 91 815 61 834 l 61 834 q 70 862 86 882 q 102 902 129 916 l 129 916 q 150 896 178 869 q 205 842 231 812 q 256 781 273 751 z"},"a":{"ha":644,"x_min":0,"x_max":644,"o":"m 260 444 l 319 627 l 615 5 l 446 5 l 260 444 z m 59 66 l 131 66 q 120 39 134 25 q 148 10 165 10 l 165 10 l 173 10 l 173 0 l -27 0 l -27 10 q -27 10 -23 10 q -19 10 -19 10 l -19 10 q 1 10 23 23 q 45 35 59 66 l 59 66 z m 311 627 l 319 627 l 321 507 l 104 3 l 30 3 l 264 506 q 266 512 273 528 q 280 543 288 563 q 296 582 303 600 q 310 617 311 627 l 311 627 z m 151 196 l 406 196 l 406 157 l 151 157 l 151 196 z m 421 66 l 421 66 l 586 66 q 601 35 623 23 q 645 10 665 10 l 665 10 q 665 10 669 10 q 673 10 673 10 l 673 10 l 673 0 l 379 0 l 379 10 l 387 10 q 404 10 418 25 q 432 39 421 66 z"},"b":{"ha":604,"x_min":0,"x_max":604,"o":"m 139 600 l 139 600 l 305 600 q 344 600 384 594 q 424 588 457 572 q 490 556 510 527 q 530 498 530 451 l 530 451 q 530 413 514 386 q 498 359 473 344 q 448 329 420 327 l 420 327 q 464 324 499 304 q 534 284 556 251 q 577 217 577 171 l 577 171 q 577 124 557 92 q 537 59 502 39 q 467 18 422 9 q 376 0 326 0 l 326 0 l 236 0 q 236 0 236 10 q 236 20 236 30 q 236 40 236 40 l 236 40 l 284 40 q 320 40 350 54 q 379 67 397 98 q 415 129 415 180 l 415 180 q 415 215 405 242 q 394 268 375 285 q 356 301 330 309 q 304 317 273 317 l 273 317 l 273 326 q 295 326 315 333 q 335 339 350 353 q 364 366 373 388 q 381 410 381 441 l 381 441 q 381 508 350 535 q 319 561 272 561 l 272 561 l 148 561 q 148 562 146 572 q 143 581 141 591 q 139 600 139 600 z m 101 600 l 243 600 l 243 0 l 101 0 l 101 600 z m 101 63 l 104 63 l 104 0 l 36 0 l 36 10 q 37 10 42 10 q 46 10 47 10 l 47 10 q 71 10 87 26 q 102 41 101 63 l 101 63 z m 104 600 l 104 537 l 101 537 q 102 561 87 576 q 71 590 47 590 l 47 590 q 46 590 42 590 q 37 590 36 590 l 36 590 l 36 600 l 104 600 z"},"c":{"ha":683,"x_min":0,"x_max":683,"o":"m 626 251 l 634 251 l 645 100 q 626 68 592 43 q 558 17 509 2 q 460 -13 395 -13 l 395 -13 q 283 -12 202 25 q 121 62 78 132 q 34 201 34 301 l 34 301 q 34 399 77 469 q 120 538 201 576 q 282 613 395 613 l 395 613 q 463 613 522 600 q 580 587 619 567 l 619 567 l 620 408 l 612 408 q 587 500 533 537 q 479 574 405 574 l 405 574 q 332 574 284 540 q 235 506 211 445 q 186 384 186 302 l 186 302 q 186 219 211 158 q 235 97 282 63 q 329 29 395 27 l 395 27 q 466 27 513 49 q 559 71 587 120 q 614 169 626 251 l 626 251 z"},"d":{"ha":748,"x_min":0,"x_max":748,"o":"m 137 600 l 371 600 q 478 600 555 565 q 632 529 673 462 q 714 394 714 300 l 714 300 q 714 206 673 139 q 632 72 555 36 q 478 0 371 0 l 371 0 l 149 0 l 147 40 q 223 40 270 40 q 316 40 338 40 q 359 40 359 40 l 359 40 q 453 40 507 109 q 561 178 561 300 l 561 300 q 561 422 507 492 q 453 561 359 561 l 359 561 q 359 561 337 561 q 315 561 266 561 q 217 561 137 561 l 137 561 l 137 600 z m 102 600 l 246 600 l 246 0 l 102 0 l 102 600 z m 102 64 l 105 64 l 105 0 l 33 0 l 33 10 q 33 10 39 10 q 45 10 46 10 l 46 10 q 69 10 86 26 q 102 42 102 64 l 102 64 z m 104 600 l 104 537 l 102 537 q 101 560 85 575 q 68 590 45 590 l 45 590 q 45 590 39 590 q 33 590 33 590 l 33 590 l 33 600 l 104 600 z"},"e":{"ha":564,"x_min":0,"x_max":564,"o":"m 101 600 l 245 600 l 245 0 l 101 0 l 101 600 z m 243 40 l 479 40 l 502 0 l 243 0 l 243 40 z m 243 317 l 445 317 l 445 277 l 243 277 l 243 317 z m 243 600 l 490 600 l 490 560 l 243 560 l 243 600 z m 534 184 l 543 184 l 505 0 l 332 0 l 363 40 q 406 40 440 58 q 473 75 497 108 q 521 140 534 184 l 534 184 z m 359 279 l 445 279 l 445 191 l 435 191 l 435 199 q 435 232 415 254 q 394 276 359 277 l 359 277 l 359 279 z m 435 403 l 445 403 l 445 315 l 359 315 l 359 317 q 394 318 415 341 q 435 363 435 396 l 435 396 l 435 403 z m 389 562 l 490 562 l 490 456 l 480 456 l 480 465 q 480 509 457 534 q 433 559 389 560 l 389 560 l 389 562 z m 490 615 l 490 615 l 490 591 l 385 600 q 414 600 446 606 q 478 611 490 615 z m 101 63 l 103 63 l 108 0 l 34 0 l 34 10 q 34 10 40 10 q 46 10 47 10 l 47 10 q 69 10 85 26 q 100 41 101 63 l 101 63 z m 108 600 l 103 537 l 101 537 q 100 560 85 575 q 69 590 47 590 l 47 590 q 46 590 40 590 q 34 590 34 590 l 34 590 l 34 600 l 108 600 z"},"f":{"ha":535,"x_min":0,"x_max":535,"o":"m 101 600 l 245 600 l 245 0 l 101 0 l 101 600 z m 243 317 l 446 317 l 446 277 l 243 277 l 243 317 z m 243 600 l 492 600 l 492 560 l 243 560 l 243 600 z m 359 279 l 446 279 l 446 191 l 436 191 l 436 199 q 436 232 416 254 q 395 276 359 277 l 359 277 l 359 279 z m 436 403 l 446 403 l 446 315 l 359 315 l 359 317 q 395 318 416 341 q 436 363 436 396 l 436 396 l 436 403 z m 389 563 l 492 563 l 492 455 l 481 455 l 481 465 q 481 508 458 534 q 434 559 389 560 l 389 560 l 389 563 z m 492 615 l 492 615 l 492 591 l 386 600 q 405 600 427 603 q 448 605 466 609 q 484 612 492 615 z m 101 63 l 104 63 l 108 0 l 34 0 l 34 10 q 34 10 40 10 q 46 10 47 10 l 47 10 q 69 10 85 26 q 101 41 101 63 l 101 63 z m 108 600 l 104 537 l 101 537 q 101 560 85 575 q 69 590 47 590 l 47 590 q 46 590 40 590 q 34 590 34 590 l 34 590 l 34 600 l 108 600 z m 239 0 l 243 63 l 245 63 q 246 41 262 26 q 277 10 300 10 l 300 10 q 300 10 306 10 q 312 10 313 10 l 313 10 l 312 0 l 239 0 z"},"g":{"ha":730,"x_min":0,"x_max":730,"o":"m 370 613 l 370 613 q 416 613 463 608 q 509 602 550 592 q 590 581 618 567 l 618 567 l 618 408 l 610 408 q 594 472 563 508 q 531 544 490 559 q 449 574 401 574 l 401 574 q 331 574 283 541 q 235 508 211 446 q 186 383 186 295 l 186 295 q 186 212 208 152 q 230 92 273 59 q 316 26 377 26 l 377 26 q 409 26 438 37 q 467 47 489 68 q 511 88 520 118 l 520 118 l 521 238 q 521 258 510 268 q 498 278 477 278 l 477 278 l 463 278 l 463 287 l 720 287 l 720 278 l 707 278 q 663 278 664 238 l 664 238 l 664 105 q 643 77 599 50 q 555 23 495 5 q 435 -13 364 -13 l 364 -13 q 264 -12 190 26 q 116 63 75 133 q 34 203 34 301 l 34 301 q 34 399 75 469 q 116 538 191 576 q 266 613 370 613 z"},"h":{"ha":751,"x_min":0,"x_max":751,"o":"m 508 600 l 651 600 l 651 0 l 508 0 l 508 600 z m 100 600 l 244 600 l 244 0 l 100 0 l 100 600 z m 235 319 l 516 319 l 516 279 l 235 279 l 235 319 z m 100 63 l 103 63 l 103 0 l 34 0 l 34 10 q 34 10 40 10 q 45 10 46 10 l 46 10 q 68 10 84 26 q 100 41 100 63 l 100 63 z m 242 0 l 242 63 l 244 63 q 245 41 261 26 q 277 10 299 10 l 299 10 q 299 10 305 10 q 310 10 310 10 l 310 10 l 310 0 l 242 0 z m 244 537 l 242 537 l 242 600 l 310 600 l 310 590 q 310 590 305 590 q 299 590 299 590 l 299 590 q 277 590 261 575 q 245 560 244 537 l 244 537 z m 103 600 l 103 537 l 100 537 q 100 560 84 575 q 68 590 46 590 l 46 590 q 45 590 40 590 q 34 590 34 590 l 34 590 l 34 600 l 103 600 z m 507 63 l 510 63 l 510 0 l 442 0 l 442 10 q 442 10 448 10 q 453 10 453 10 l 453 10 q 475 10 491 26 q 507 41 507 63 l 507 63 z m 648 0 l 648 63 l 651 63 q 652 41 668 26 q 683 10 706 10 l 706 10 q 706 10 712 10 q 717 10 717 10 l 717 10 l 717 0 l 648 0 z m 652 537 l 649 537 l 649 600 l 718 600 l 718 590 q 718 590 712 590 q 706 590 706 590 l 706 590 q 683 590 668 575 q 652 560 652 537 l 652 537 z m 510 600 l 510 537 l 507 537 q 507 560 491 575 q 475 590 453 590 l 453 590 q 453 590 448 590 q 442 590 442 590 l 442 590 l 442 600 l 510 600 z"},"i":{"ha":352,"x_min":0,"x_max":352,"o":"m 104 600 l 248 600 l 248 0 l 104 0 l 104 600 z m 104 63 l 107 63 l 107 0 l 34 0 l 34 10 q 34 10 40 10 q 46 10 47 10 l 47 10 q 70 10 87 26 q 104 41 104 63 l 104 63 z m 246 0 l 246 63 l 248 63 q 249 41 266 26 q 282 10 306 10 l 306 10 q 306 10 312 10 q 317 10 318 10 l 318 10 l 318 0 l 246 0 z m 248 537 l 246 537 l 246 600 l 318 600 l 317 590 q 317 590 312 590 q 307 590 306 590 l 306 590 q 282 590 266 575 q 249 560 248 537 l 248 537 z m 107 600 l 107 537 l 104 537 q 104 560 87 575 q 70 590 46 590 l 46 590 q 46 590 40 590 q 34 590 34 590 l 34 590 l 34 600 l 107 600 z"},"j":{"ha":341,"x_min":0,"x_max":341,"o":"m 100 600 l 245 600 l 245 31 q 245 -18 224 -58 q 203 -99 168 -126 q 133 -154 89 -166 q 45 -179 -3 -174 l -3 -174 l -3 -165 q 36 -148 59 -117 q 81 -86 91 -46 q 100 -7 100 33 l 100 33 l 100 600 z m 30 600 l 104 600 l 104 535 l 101 535 q 100 558 84 574 q 67 590 42 590 l 42 590 l 31 590 l 30 600 z m 242 600 l 315 600 l 315 590 l 303 590 q 279 590 263 574 q 246 558 245 535 l 245 535 l 242 535 l 242 600 z"},"k":{"ha":673,"x_min":0,"x_max":673,"o":"m 275 280 l 382 378 l 606 67 q 625 39 646 25 q 667 10 695 9 l 695 9 l 695 0 l 618 0 q 608 0 585 1 q 562 2 533 9 q 503 15 473 31 q 443 47 420 77 l 420 77 q 415 84 403 101 q 391 118 375 141 q 358 164 341 188 q 323 212 308 233 q 293 254 284 267 q 275 280 275 280 l 275 280 z m 512 594 l 594 594 l 333 286 l 275 280 l 512 594 z m 652 601 l 656 601 l 656 591 l 652 591 q 623 591 598 580 q 573 569 557 550 l 557 550 l 480 552 q 491 566 484 579 q 477 591 460 591 l 460 591 l 452 591 l 452 601 l 652 601 z m 102 601 l 246 601 l 246 0 l 102 0 l 102 601 z m 102 63 l 104 63 l 104 0 l 36 0 l 36 10 q 36 10 41 10 q 45 10 46 10 l 46 10 q 69 10 85 26 q 101 41 102 63 l 102 63 z m 243 0 l 243 63 l 246 63 q 246 41 262 26 q 278 10 301 10 l 301 10 q 302 10 307 10 q 312 10 312 10 l 312 10 l 312 0 l 243 0 z m 246 537 l 243 537 l 243 601 l 312 601 l 312 591 q 311 591 307 591 q 302 591 301 591 l 301 591 q 278 591 262 576 q 246 560 246 537 l 246 537 z m 104 601 l 104 537 l 102 537 q 101 560 85 576 q 69 591 46 591 l 46 591 q 46 591 41 591 q 36 591 35 591 l 35 591 l 35 601 l 104 601 z"},"l":{"ha":549,"x_min":0,"x_max":549,"o":"m 101 600 l 245 600 l 245 0 l 101 0 l 101 600 z m 243 40 l 478 40 l 502 0 l 243 0 l 243 40 z m 534 184 l 544 184 l 505 0 l 332 0 l 363 40 q 406 40 440 58 q 473 75 497 108 q 521 140 534 184 l 534 184 z m 101 63 l 103 63 l 108 0 l 34 0 l 34 10 q 34 10 40 10 q 46 10 47 10 l 47 10 q 69 10 85 26 q 100 41 101 63 l 101 63 z m 245 537 l 243 537 l 243 600 l 312 600 l 312 590 q 311 590 306 590 q 300 590 300 590 l 300 590 q 278 590 262 575 q 246 560 245 537 l 245 537 z m 103 600 l 103 537 l 101 537 q 100 560 84 575 q 68 590 46 590 l 46 590 q 45 590 40 590 q 34 590 34 590 l 34 590 l 34 600 l 103 600 z"},"m":{"ha":863,"x_min":0,"x_max":863,"o":"m 360 63 l 705 613 l 713 510 l 444 83 q 444 83 435 67 q 426 50 418 27 q 409 4 408 -19 l 408 -19 l 399 -19 l 360 63 z m 71 64 l 90 64 l 90 0 l -8 0 l -8 10 q -8 10 -1 10 q 5 10 5 10 l 5 10 q 30 10 49 24 q 67 38 71 64 l 71 64 z m 128 50 l 133 50 q 132 39 140 25 q 148 10 168 10 l 168 10 l 182 10 l 182 0 l 122 0 l 128 50 z m 63 0 l 149 613 l 157 613 l 191 517 l 128 0 l 63 0 z m 133 384 l 157 613 l 453 170 l 399 -19 l 133 384 z m 705 613 l 714 613 l 802 0 l 649 0 l 600 365 l 705 613 z m 774 0 l 774 64 l 793 64 q 798 38 817 24 q 835 10 858 10 l 858 10 q 858 10 865 10 q 872 10 872 10 l 872 10 l 872 0 l 774 0 z m 642 50 l 642 50 l 648 50 l 654 0 l 594 0 l 594 10 l 608 10 q 630 10 637 25 q 644 39 642 50 z"},"n":{"ha":779,"x_min":0,"x_max":779,"o":"m 102 503 l 91 614 l 678 98 l 688 -13 l 102 503 z m 92 61 l 95 61 l 95 0 l 21 0 l 21 10 q 21 10 29 10 q 37 10 37 10 l 37 10 q 60 10 76 25 q 92 39 92 61 l 92 61 z m 227 61 l 229 61 q 230 39 246 25 q 262 10 284 10 l 284 10 q 284 10 293 10 q 301 10 301 10 l 301 10 l 301 0 l 227 0 l 227 61 z m 82 614 l 91 614 l 229 464 l 229 0 l 92 0 l 92 500 q 92 551 87 583 q 82 614 82 614 l 82 614 z m 550 600 l 687 600 l 687 104 q 687 69 690 43 q 692 16 695 2 q 697 -13 697 -13 l 697 -13 l 688 -13 l 550 146 l 550 600 z m 687 539 l 684 539 l 684 600 l 759 600 l 759 590 q 759 590 751 590 q 742 590 742 590 l 742 590 q 720 590 704 576 q 687 561 687 539 l 687 539 z m 552 539 l 550 539 q 549 561 534 576 q 518 590 495 590 l 495 590 q 495 590 487 590 q 478 590 478 590 l 478 590 l 478 600 l 552 600 l 552 539 z"},"o":{"ha":777,"x_min":0,"x_max":777,"o":"m 388 613 l 388 613 q 468 613 533 592 q 598 570 645 529 q 692 488 718 430 q 743 372 743 299 l 743 299 q 743 227 718 170 q 692 112 645 71 q 598 30 533 9 q 468 -13 388 -13 l 388 -13 q 309 -13 244 9 q 179 30 132 71 q 85 112 60 170 q 35 227 35 299 l 35 299 q 35 372 60 430 q 85 488 132 529 q 179 570 244 592 q 309 613 388 613 z m 388 26 l 388 26 q 449 26 495 60 q 540 93 565 154 q 589 215 589 299 l 589 299 q 589 384 565 446 q 540 507 495 541 q 449 574 388 574 l 388 574 q 328 574 283 541 q 238 507 213 446 q 188 384 188 299 l 188 299 q 188 215 213 154 q 238 93 283 60 q 328 26 388 26 z"},"p":{"ha":586,"x_min":0,"x_max":586,"o":"m 234 600 l 234 600 l 330 600 q 411 600 461 578 q 511 556 536 519 q 561 481 563 434 l 563 434 q 565 375 540 331 q 514 287 471 264 q 428 241 377 244 q 326 246 276 279 l 276 279 l 276 288 q 276 288 287 288 q 297 288 313 292 q 329 295 347 305 q 364 315 380 335 q 396 355 405 389 l 405 389 q 408 401 410 416 q 411 430 410 441 l 410 441 q 409 496 378 529 q 346 561 290 561 l 290 561 l 243 561 q 243 561 241 571 q 239 580 237 590 q 234 600 234 600 z m 101 600 l 245 600 l 245 0 l 101 0 l 101 600 z m 101 63 l 103 63 l 107 0 l 35 0 l 35 10 q 36 10 41 10 q 46 10 47 10 l 47 10 q 69 10 85 26 q 100 41 101 63 l 101 63 z m 107 600 l 103 538 l 101 538 q 100 561 85 576 q 69 590 47 590 l 47 590 q 45 590 41 590 q 36 590 34 590 l 34 590 l 34 600 l 107 600 z m 238 0 l 243 63 l 245 63 q 246 41 261 26 q 276 10 299 10 l 299 10 q 301 10 306 10 q 310 10 311 10 l 311 10 l 311 0 l 238 0 z"},"q":{"ha":767,"x_min":0,"x_max":767,"o":"m 380 613 l 380 613 q 458 613 522 592 q 585 570 631 529 q 676 488 701 430 q 725 372 725 299 l 725 299 q 725 227 701 170 q 676 112 631 71 q 585 30 522 9 q 458 -13 380 -13 l 380 -13 q 302 -13 239 9 q 175 30 130 71 q 84 112 60 170 q 35 227 35 299 l 35 299 q 35 372 60 430 q 84 488 130 529 q 175 570 239 592 q 302 613 380 613 z m 380 26 l 380 26 q 438 26 482 60 q 525 93 549 154 q 572 215 572 299 l 572 299 q 572 384 549 446 q 525 507 482 541 q 438 574 380 574 l 380 574 q 322 574 279 541 q 236 507 212 446 q 188 384 188 299 l 188 299 q 188 215 212 154 q 236 93 279 60 q 322 26 380 26 z m 378 -12 l 378 -12 l 348 24 q 403 20 446 15 q 489 9 525 1 q 561 -7 597 -18 q 633 -29 674 -43 q 715 -58 768 -79 l 768 -79 q 827 -101 883 -111 q 938 -122 988 -119 q 1038 -117 1081 -102 q 1124 -87 1159 -60 l 1159 -60 l 1164 -63 q 1162 -108 1139 -146 q 1115 -184 1074 -209 q 1033 -235 977 -244 q 920 -253 852 -240 q 783 -227 706 -187 l 706 -187 q 658 -162 616 -133 q 573 -104 534 -77 q 495 -51 457 -33 q 419 -16 378 -12 z"},"r":{"ha":658,"x_min":0,"x_max":658,"o":"m 241 600 l 241 600 l 349 600 q 390 600 429 592 q 468 583 499 565 q 530 546 549 515 q 567 483 567 436 l 567 436 q 567 401 553 367 q 538 332 508 307 q 477 282 428 274 l 428 274 q 457 265 484 239 q 510 213 525 190 l 525 190 q 529 182 539 165 q 549 147 565 125 q 580 102 597 78 l 597 78 q 617 51 632 37 q 647 22 663 16 q 679 10 700 10 l 700 10 l 700 0 l 616 0 q 562 0 525 8 q 487 16 460 38 q 432 59 409 96 l 409 96 q 400 109 390 128 q 380 146 370 165 q 360 184 353 202 q 345 220 342 232 l 342 232 q 329 264 313 279 q 296 293 282 293 l 282 293 l 282 302 q 282 302 289 302 q 296 302 307 302 l 307 302 q 328 302 349 310 q 369 317 386 339 q 403 360 411 402 l 411 402 q 413 408 415 419 q 416 430 415 444 l 415 444 q 413 481 402 504 q 390 526 373 538 q 356 549 339 554 q 321 558 308 558 l 308 558 q 289 559 274 559 q 258 558 250 559 l 250 559 q 249 559 247 570 q 245 580 243 590 q 241 600 241 600 z m 106 600 l 251 600 l 251 0 l 106 0 l 106 600 z m 107 63 l 109 63 l 113 0 l 41 0 l 41 10 q 42 10 47 10 q 51 10 53 10 l 53 10 q 75 10 91 26 q 106 41 107 63 l 107 63 z m 113 600 l 109 538 l 107 538 q 106 561 91 576 q 75 590 54 590 l 54 590 q 51 590 47 590 q 42 590 41 590 l 41 590 l 41 600 l 113 600 z m 244 0 l 249 63 l 251 63 q 251 38 269 24 q 286 10 306 10 l 306 10 q 306 10 310 10 q 314 10 316 10 l 316 10 l 316 0 l 244 0 z"},"s":{"ha":515,"x_min":0,"x_max":515,"o":"m 238 613 l 238 613 q 258 613 287 611 q 315 609 343 607 q 371 604 393 601 q 414 597 422 594 l 422 594 l 409 472 l 400 472 q 400 518 368 545 q 336 572 276 572 l 276 572 q 228 572 199 551 q 169 530 167 495 l 167 495 q 165 477 174 463 q 182 448 198 437 q 213 426 232 415 l 232 415 l 389 318 q 429 298 452 260 q 475 222 472 168 l 472 168 q 469 112 440 71 q 410 30 359 9 q 307 -13 237 -13 l 237 -13 q 194 -13 157 -6 q 120 1 94 13 q 67 25 53 40 l 53 40 q 45 60 46 89 q 47 117 55 146 q 63 174 75 193 l 75 193 l 83 193 q 80 148 100 110 q 119 72 157 50 q 195 27 248 27 l 248 27 q 306 27 335 54 q 364 81 364 117 l 364 117 q 364 144 347 166 q 329 187 289 208 l 289 208 l 147 298 q 97 324 75 367 q 52 410 58 461 l 58 461 q 63 509 87 543 q 110 577 149 595 q 188 613 238 613 z m 314 604 l 422 604 l 421 586 l 314 586 l 314 604 z"},"t":{"ha":599,"x_min":0,"x_max":599,"o":"m 227 597 l 372 597 l 372 0 l 227 0 l 227 597 z m 10 601 l 590 601 l 590 561 l 10 561 l 10 601 z m 488 564 l 590 564 l 590 458 l 579 458 l 579 467 q 580 510 556 535 q 531 560 488 561 l 488 561 l 488 564 z m 590 616 l 590 616 l 590 591 l 484 601 q 503 601 525 604 q 547 606 565 610 q 583 613 590 616 z m 227 63 l 229 63 l 229 0 l 162 0 l 162 10 q 162 10 168 10 q 173 10 173 10 l 173 10 q 195 10 211 26 q 226 41 227 63 l 227 63 z m 369 0 l 369 63 l 372 63 q 372 41 388 26 q 404 10 427 10 l 427 10 q 427 10 433 10 q 438 10 438 10 l 438 10 l 438 0 l 369 0 z m 10 564 l 112 564 l 112 561 q 68 560 45 535 q 21 510 21 467 l 21 467 l 21 458 l 10 458 l 10 564 z m 10 591 l 10 616 q 19 614 37 610 q 54 606 76 604 q 97 601 115 601 l 115 601 l 10 591 z"},"u":{"ha":705,"x_min":0,"x_max":705,"o":"m 87 600 l 231 600 l 231 223 q 231 131 274 79 q 316 27 392 27 l 392 27 q 471 27 515 76 q 558 125 559 212 l 559 212 l 559 600 l 625 600 l 625 218 q 625 111 560 49 q 494 -13 374 -13 l 374 -13 q 229 -13 158 49 q 87 110 87 217 l 87 217 l 87 600 z m 27 600 l 89 600 l 89 548 l 87 548 q 86 567 73 579 q 60 591 41 591 l 41 591 q 41 591 34 591 q 27 591 27 591 l 27 591 l 27 600 z m 229 600 l 290 600 l 290 591 q 290 591 283 591 q 276 591 276 591 l 276 591 q 257 591 244 579 q 231 567 231 548 l 231 548 l 229 548 l 229 600 z m 500 600 l 561 600 l 561 548 l 559 548 q 558 567 545 579 q 532 591 514 591 l 514 591 q 514 591 507 591 q 500 591 500 591 l 500 591 l 500 600 z m 623 600 l 684 600 l 684 591 q 684 591 678 591 q 671 591 671 591 l 671 591 q 652 591 639 579 q 625 567 625 548 l 625 548 l 623 548 l 623 600 z"},"v":{"ha":637,"x_min":0,"x_max":637,"o":"m 380 171 l 322 -13 l 28 595 l 198 595 l 380 171 z m 331 -13 l 322 -13 l 318 104 l 535 597 l 608 597 l 377 109 q 375 104 368 89 q 361 73 353 54 q 345 34 339 16 q 332 -2 331 -13 l 331 -13 z m 578 534 l 507 534 q 518 561 505 576 q 491 591 473 591 l 473 591 l 466 591 l 466 600 l 665 600 l 665 590 q 665 590 661 590 q 657 590 657 590 l 657 590 q 637 590 615 578 q 593 565 578 534 l 578 534 z m 224 534 l 224 534 l 58 534 q 43 565 22 578 q 0 590 -20 590 l -20 590 q -20 590 -23 590 q -27 590 -27 590 l -27 590 l -27 600 l 266 600 l 266 591 l 258 591 q 242 591 228 576 q 214 561 224 534 z"},"w":{"ha":870,"x_min":0,"x_max":870,"o":"m 274 -11 l 40 594 l 195 594 l 330 238 l 274 -11 z m 479 614 l 487 614 l 505 522 l 306 90 q 306 90 301 75 q 295 60 289 37 q 283 14 283 -11 l 283 -11 l 274 -11 l 247 100 l 479 614 z m 421 422 l 487 614 l 683 220 l 636 -11 l 421 422 z m 761 594 l 825 594 l 661 90 q 661 90 657 74 q 652 58 648 35 q 644 11 645 -11 l 645 -11 l 636 -11 l 609 79 l 761 594 z m 806 535 l 743 535 q 751 564 740 577 q 728 590 711 590 l 711 590 l 703 590 l 703 600 l 891 600 l 891 590 q 891 590 888 590 q 884 590 884 590 l 884 590 q 861 590 838 577 q 815 563 806 535 l 806 535 z m 218 535 l 218 535 l 63 535 q 52 563 31 577 q 10 590 -15 590 l -15 590 q -15 590 -19 590 q -23 590 -23 590 l -23 590 l -23 600 l 258 600 l 258 590 l 250 590 q 234 590 221 577 q 208 564 218 535 z"},"x":{"ha":650,"x_min":0,"x_max":650,"o":"m 55 600 l 220 600 l 607 1 l 440 1 l 55 600 z m 82 59 l 160 62 q 147 43 160 27 q 172 10 190 10 l 190 10 q 190 10 196 10 q 201 10 201 10 l 201 10 l 201 0 l -19 0 l -19 10 l -7 10 q 21 10 44 25 q 66 39 82 59 l 82 59 z m 40 3 l 270 306 l 313 271 l 116 1 l 40 3 z m 401 61 l 401 61 l 570 58 q 583 39 607 25 q 630 10 658 10 l 658 10 l 670 10 l 670 0 l 360 0 l 360 10 q 360 10 366 10 q 371 10 371 10 l 371 10 q 389 10 401 27 q 413 43 401 61 z m -8 601 l 300 601 l 300 591 q 300 591 295 591 q 289 591 289 591 l 289 591 q 272 591 260 574 q 248 557 259 540 l 259 540 l 93 543 q 79 562 56 577 q 32 591 4 591 l 4 591 l -8 591 l -8 601 z m 510 600 l 587 600 l 376 291 l 343 343 l 510 600 z m 430 601 l 649 601 l 649 591 l 636 591 q 609 591 586 577 q 562 563 548 543 l 548 543 l 471 540 q 482 557 471 574 q 459 591 441 591 l 441 591 q 441 591 436 591 q 430 591 430 591 l 430 591 l 430 601 z"},"y":{"ha":636,"x_min":0,"x_max":636,"o":"m 32 599 l 196 599 l 384 274 l 251 259 l 32 599 z m 246 270 l 390 272 l 390 0 l 246 0 l 246 270 z m 333 261 l 532 599 l 606 599 l 380 252 l 333 261 z m 568 541 l 496 538 q 507 557 496 574 q 485 590 466 590 l 466 590 q 466 590 460 590 q 454 590 454 590 l 454 590 l 454 600 l 669 600 l 669 590 l 656 590 q 629 590 606 576 q 582 561 568 541 l 568 541 z m 231 538 l 231 538 l 69 541 q 55 562 32 576 q 9 590 -19 590 l -19 590 l -31 590 l -31 600 l 273 600 l 273 590 q 273 590 268 590 q 262 590 262 590 l 262 590 q 242 590 232 573 q 221 556 231 538 z m 246 63 l 249 63 l 249 0 l 178 0 l 178 10 q 179 10 185 10 q 190 10 190 10 l 190 10 q 213 10 229 26 q 245 41 246 63 l 246 63 z m 388 0 l 388 63 l 390 63 q 391 41 408 26 q 424 10 446 10 l 446 10 q 446 10 452 10 q 458 10 458 10 l 458 10 l 458 0 l 388 0 z"},"z":{"ha":607,"x_min":0,"x_max":607,"o":"m 555 613 l 555 613 q 555 613 555 609 q 555 605 555 605 l 555 605 l 207 0 l 35 0 l 35 8 l 364 561 l 49 561 l 49 601 l 453 601 q 472 601 494 603 q 515 604 532 607 q 549 610 555 613 z m 101 39 l 545 39 l 538 0 l 101 0 l 101 39 z m 582 184 l 592 184 l 549 0 l 368 0 l 402 39 q 449 40 484 57 q 519 74 544 107 q 568 139 582 184 l 582 184 z m 49 458 l 49 564 l 152 564 l 152 561 q 108 561 84 536 q 59 510 59 466 l 59 466 l 59 458 l 49 458 z m 49 591 l 49 616 q 57 613 76 610 q 94 606 117 604 q 139 601 158 601 l 158 601 l 49 591 z"},"{":{"ha":380,"x_min":0,"x_max":380,"o":"m 132 340 l 132 340 q 137 353 132 382 q 126 411 119 448 q 112 485 112 519 l 112 519 q 112 577 137 626 q 161 674 214 704 q 266 733 351 733 l 351 733 l 353 725 q 307 713 288 686 q 269 658 266 618 q 262 578 262 529 l 262 529 q 262 469 256 432 q 250 394 238 372 q 225 349 206 337 q 187 325 159 316 l 159 316 q 187 309 207 295 q 226 281 239 257 q 251 233 257 198 q 262 163 262 112 l 262 112 q 262 74 262 41 q 261 7 267 -19 q 272 -46 289 -64 q 306 -83 341 -92 l 341 -92 l 339 -100 q 254 -100 205 -70 q 155 -41 134 7 q 112 55 112 112 l 112 112 q 112 148 119 185 q 125 221 130 250 q 135 278 129 292 l 129 292 q 125 304 111 309 q 97 313 85 314 l 85 314 l 85 324 q 99 325 113 327 q 126 329 132 340 z"},"|":{"ha":257,"x_min":0,"x_max":257,"o":"m 100 -180 l 100 700 l 157 700 l 157 -180 l 100 -180 z"},"}":{"ha":380,"x_min":0,"x_max":380,"o":"m 28 725 l 30 733 q 115 733 167 704 q 219 674 244 626 q 268 577 268 519 l 268 519 q 269 485 262 448 q 254 411 249 382 q 244 353 249 340 l 249 340 q 254 329 269 327 q 283 325 296 324 l 296 324 l 296 314 q 283 313 270 309 q 257 304 252 292 l 252 292 q 247 278 252 250 q 256 221 263 185 q 269 148 268 112 l 268 112 q 268 55 247 7 q 225 -41 176 -70 q 127 -100 42 -100 l 42 -100 l 40 -92 q 75 -83 92 -64 q 108 -46 114 -19 q 119 7 119 41 q 118 74 118 112 l 118 112 q 118 163 124 198 q 130 233 143 257 q 155 281 175 295 q 194 309 221 316 l 221 316 q 194 325 175 337 q 155 349 143 372 q 130 394 124 432 q 118 469 118 529 l 118 529 q 118 578 115 618 q 111 658 93 686 q 74 713 28 725 l 28 725 z"},"~":{"ha":494,"x_min":0,"x_max":494,"o":"m 92 213 l 92 213 l 35 213 q 25 263 39 296 q 52 329 80 346 q 108 363 140 364 l 140 364 q 167 364 196 350 q 224 335 252 316 q 279 296 304 281 q 328 265 346 265 l 346 265 q 366 264 383 275 q 399 286 405 308 q 411 329 399 359 l 399 359 l 458 359 q 472 307 457 274 q 442 240 412 224 q 381 208 346 208 l 346 208 q 319 208 292 223 q 264 237 238 257 q 211 276 187 291 q 162 306 140 307 l 140 307 q 114 308 98 287 q 81 265 92 213 z"}}}
